<svg class="icon" viewBox="0 0 1024 1024" xmlns="http://www.w3.org/2000/svg" width="36" height="36"><path d="M512 74.667C270.933 74.667 74.667 270.933 74.667 512S270.933 949.333 512 949.333 949.333 753.067 949.333 512 753.067 74.667 512 74.667zm0 810.666C307.2 885.333 138.667 716.8 138.667 512S307.2 138.667 512 138.667 885.333 307.2 885.333 512 716.8 885.333 512 885.333z" fill="#2F3035"/><path d="M682.667 480H544V341.333c0-17.066-14.933-32-32-32s-32 14.934-32 32V480H341.333c-17.066 0-32 14.933-32 32s14.934 32 32 32H480v138.667c0 17.066 14.933 32 32 32s32-14.934 32-32V544h138.667c17.066 0 32-14.933 32-32s-14.934-32-32-32z" fill="#2F3035"/></svg>