<svg xmlns="http://www.w3.org/2000/svg" width="20" height="20" fill="#999" class="UGHpJg4D"><g opacity=".9"><path fill="#fff" fill-opacity=".7" fill-rule="evenodd" d="M6.148 4.783c.986-.139 1.92.21 2.723.923a.53.53 0 0 1 .177.385l.024 1.365 1.354 1a.53.53 0 0 1 .116.731l-.999 1.4.672 1.419a.528.528 0 1 1-.954.451l-.805-1.699a.53.53 0 0 1 .048-.532l.877-1.23-1.146-.845a.53.53 0 0 1-.214-.416l-.024-1.384c-.566-.442-1.14-.602-1.702-.523-1.167.164-2.115 1.507-1.893 3.088l.016.107.003.017.009.06.002.021c.029.156.097.384.186.622a4 4 0 0 0 .267.586c.576.989 1.622 2.007 2.583 2.815a26 26 0 0 0 1.66 1.284l.033.023c.077.056.157.113.193.144.043.036.07.06.096.08a.3.3 0 0 0 .058.035h.005a.1.1 0 0 0 .045-.008q.073-.035.154-.047.002 0 .016-.01l.045-.036.075-.072c.04-.04.118-.103.187-.158l.018-.014.031-.025q.13-.103.32-.259c.286-.233.664-.55 1.075-.923.82-.745 1.741-1.688 2.326-2.618.057-.135.106-.226.19-.356q.044-.098.092-.195a2 2 0 0 1 .086-.146 3.8 3.8 0 0 0 .185-.86c0-.02.003-.043.004-.056l.002-.016.008-.104c.108-1.546-.902-2.779-2.037-2.858-.645-.045-1.386.245-1.744.742a.528.528 0 1 1-.856-.617c.613-.85 1.74-1.244 2.673-1.178 1.87.13 3.154 2.023 3.017 3.985l-.01.126-.001.011-.002.05c-.037.426-.127.77-.261 1.183a.5.5 0 0 1-.103.182v.001a3 3 0 0 0-.1.21.5.5 0 0 1-.047.084 1.2 1.2 0 0 0-.139.257l-.039.076c-.662 1.07-1.684 2.107-2.534 2.879a28 28 0 0 1-1.444 1.223l-.032.026-.104.084c-.02.016-.024.02-.021.016l-.017.017c-.104.104-.308.306-.625.378a1.2 1.2 0 0 1-.266.07c-.513.072-.835-.204-.995-.342l-.017-.014-.022-.016a27 27 0 0 1-1.858-1.43c-.977-.822-2.14-1.934-2.812-3.086a5 5 0 0 1-.347-.753 5 5 0 0 1-.245-.857l-.006-.055-.001-.006-.02-.132c-.28-1.994.894-4.014 2.791-4.28" clip-rule="evenodd"/><path stroke="#fff" stroke-linecap="round" stroke-linejoin="round" stroke-opacity=".7" stroke-width=".15" d="m9.713 14.655.015-.01m-.015.01-.054-.05.002-.002m.053.053-.03-.068m.03.067v-.002h0l-.006-.038.022.032m-.016.008v-.002h0l-.006-.038-.02-.03v.001h-.002l-.003.002m.03.067-.052-.052h0m.069.044-.022-.032.33-.235m-.308.267.045-.037.075-.072c.04-.04.118-.103.187-.158m0 0-.046-.058.017-.014.032-.026.319-.258a27 27 0 0 0 1.072-.92c.817-.743 1.73-1.678 2.309-2.598.058-.134.108-.228.192-.357q.041-.097.09-.193a2 2 0 0 1 .085-.145c.098-.313.152-.541.177-.805l.001-.025.004-.059h0l.002-.016h0l.008-.103c.106-1.516-.884-2.703-1.967-2.779-.624-.043-1.338.24-1.678.712a.603.603 0 1 1-.978-.705c.631-.875 1.786-1.276 2.74-1.21 1.922.135 3.225 2.075 3.086 4.066l-.01.128-.001.007-.003.053c-.037.434-.13.784-.264 1.2a.6.6 0 0 1-.113.204 3 3 0 0 0-.093.196 1 1 0 0 1-.052.096c-.073.109-.09.143-.132.244a1 1 0 0 1-.045.087c-.668 1.079-1.696 2.12-2.548 2.894-.43.39-.825.721-1.12.962-.13.107-.242.196-.327.264h0l-.032.026-.104.084h0l-.02.016h0l-.012.012-.002.002c-.104.104-.319.317-.653.395a1.3 1.3 0 0 1-.278.072c-.548.077-.891-.218-1.054-.358l-.001-.001-.013-.012-.003-.002-.018-.013h0A27 27 0 0 1 6.74 14.01c-.978-.823-2.149-1.941-2.828-3.104a5 5 0 0 1-.353-.766 5 5 0 0 1-.25-.871l-.006-.058v-.002h0l-.02-.135c-.285-2.022.906-4.09 2.855-4.365 1.012-.142 1.967.218 2.783.942.126.112.2.271.202.44l.023 1.328 1.325.978a.603.603 0 0 1 .132.835l-.973 1.363.653 1.38a.603.603 0 0 1-1.09.515l-.804-1.699a.6.6 0 0 1 .054-.608l.834-1.169-1.086-.802a.6.6 0 0 1-.245-.474l-.024-1.349c-.542-.415-1.087-.56-1.617-.486-1.116.157-2.047 1.452-1.829 3.004l.016.105.003.017h0v.001l.011.082c.028.15.095.372.182.606.095.255.193.464.253.56l.009.014-.065.038.065-.038c.569.977 1.607 1.989 2.566 2.795a26 26 0 0 0 1.656 1.281l.033.023-.044.061.044-.06.003.002c.075.054.156.112.195.146a2 2 0 0 0 .12.095.6.6 0 0 1 .163-.051 2 2 0 0 0 .109-.1c.043-.041.123-.106.19-.16l.004-.002zm-.354.208-.019.013-.002.002m.02-.015-.02.015m.02-.015s0 0 0 0m0 0"/></g></svg>