<svg xmlns="http://www.w3.org/2000/svg" width="20" height="20" fill="none" class="UGHpJg4D"><path fill="#FE2C55" fill-rule="evenodd" d="M10.106 5.412c.571-.814 1.51-1.244 2.542-1.244 1.966 0 3.602 1.706 3.602 3.734l-.002.134V8.1l.002.009c-.008.427-.081.78-.212 1.245-.074.084-.143.241-.212.415-.108.168-.15.25-.212.415a9 9 0 0 1-.298.464c-.488.71-1.108 1.414-1.734 2.05-1.13 1.154-2.304 2.121-2.806 2.535-.134.11-.22.182-.245.206-.177.177-.354.177-.531.177h-.025c-.338-.009-.51-.182-.683-.355a1 1 0 0 0-.083-.07 25.5 25.5 0 0 1-3.037-2.685c-.814-.845-1.582-1.799-2.014-2.732-.177-.354-.398-1.197-.408-1.665q.005-.005.002-.071l-.002-.136c0-2.03 1.634-3.734 3.602-3.734 1.03 0 1.97.43 2.754 1.244" clip-rule="evenodd" opacity=".9"/></svg>