<svg xmlns="http://www.w3.org/2000/svg" width="20" height="20" fill="#999" class="UGHpJg4D"><path fill-opacity=".7" fill-rule="evenodd" d="M7.646 4.168c-2.238 0-4.035 1.919-4.035 4.152l.002.13-.001.073c.006.3.075.66.15.962.074.294.178.622.294.86.467 1.004 1.284 1.979 2.071 2.78a24 24 0 0 0 2.646 2.323l.015.012.012.01c.174.175.543.54 1.2.54h.019c.186 0 .63 0 1.028-.387l.033-.027.14-.117.003-.003c.436-.359 1.456-1.2 2.462-2.214.644-.646 1.312-1.396 1.822-2.17a8 8 0 0 0 .2-.318 1 1 0 0 0 .063-.13 1 1 0 0 1 .11-.214 1 1 0 0 0 .074-.144c.029-.073.05-.121.066-.154l.003-.007a.8.8 0 0 0 .147-.29c.125-.444.21-.835.219-1.316l-.002-.067.002-.16c-.015-2.22-1.807-4.124-4.035-4.124-.845 0-1.667.262-2.316.789a4.03 4.03 0 0 0-2.392-.789m7.076 4.153v.103l-.002.07.002.039a3 3 0 0 1-.121.721 2 2 0 0 0-.078.144 3 3 0 0 0-.089.2c-.083.135-.137.24-.193.38l-.124.195v.001c-.425.644-1.007 1.305-1.613 1.912l-.002.001a32 32 0 0 1-2.342 2.106l-.032.026-.12.1-.048-.046a2 2 0 0 0-.152-.131l-.006-.005A22 22 0 0 1 7.32 11.96l-.003-.003c-.747-.76-1.408-1.577-1.753-2.323a3 3 0 0 1-.185-.555 3.5 3.5 0 0 1-.1-.553 1 1 0 0 0 0-.104V8.42l-.001-.099c0-1.373 1.11-2.485 2.368-2.485.662 0 1.288.269 1.848.85a.833.833 0 0 0 1.282-.099c.33-.47.892-.751 1.578-.751 1.258 0 2.368 1.113 2.368 2.485" clip-rule="evenodd" opacity=".9"/></svg>